<svg xmlns="http://www.w3.org/2000/svg" width="25.039" height="25.039" viewBox="0 0 25.039 25.039">
  <g id="add-btn-side-r" transform="translate(-15826.987 -16680.468)">
    <path id="Path_38452" data-name="Path 38452" d="M190.622,260h-.013a.894.894,0,1,0,0,1.789h12.544a.894.894,0,0,0,0-1.789H190.622Z" transform="translate(15642.625 16432.094)" fill="#243864"/>
    <path id="Path_38453" data-name="Path 38453" d="M331.781,120.622v-.013a.894.894,0,0,0-1.789,0v.013h0v12.532a.894.894,0,1,0,1.789,0v-.013h0Z" transform="translate(15508.62 16566.105)" fill="#243864"/>
    <path id="Path_38454" data-name="Path 38454" d="M82.539,0A12.519,12.519,0,1,0,95.059,12.519,12.533,12.533,0,0,0,82.539,0Zm0,1.789A10.732,10.732,0,1,1,71.808,12.52,10.718,10.718,0,0,1,82.539,1.789Z" transform="translate(15756.968 16680.469)" fill="#243864"/>
  </g>
</svg>
