<svg xmlns="http://www.w3.org/2000/svg" width="14.908" height="15.668" viewBox="0 0 14.908 15.668">
  <g id="Group_8503" data-name="Group 8503" transform="translate(-15466.361 -1256)">
    <path id="Path_38502" data-name="Path 38502" d="M476.214,191.5a2.014,2.014,0,0,0-2.012-2.012h-.291v4.026h.291A2.015,2.015,0,0,0,476.214,191.5Z" transform="translate(15005.056 1070.582)"/>
    <path id="Path_38503" data-name="Path 38503" d="M301.684,91.668c-.034.034-3.052,3.152-6.254,3.92v4.133c3.2.768,6.22,3.886,6.254,3.92a.311.311,0,0,0,.226.1.36.36,0,0,0,.116-.022.316.316,0,0,0,.2-.291V91.884a.313.313,0,0,0-.539-.216Z" transform="translate(15176.117 1164.429)"/>
    <path id="Path_38504" data-name="Path 38504" d="M170.69,192.172v1.56a1.119,1.119,0,0,0,1.119,1.119h.1l.987,7.414a.314.314,0,0,0,.31.273h1.316a.314.314,0,0,0,.313-.313V194.86c.138.009.276.025.413.044V191a5.192,5.192,0,0,1-.727.053h-2.714a1.118,1.118,0,0,0-1.119,1.116Z" transform="translate(15295.672 1069.131)"/>
  </g>
</svg>
