<svg xmlns="http://www.w3.org/2000/svg" width="18" height="18" viewBox="0 0 18 18">
  <g id="Group_8509" data-name="Group 8509" transform="translate(-23443.762 -2449)">
    <path id="Path_38523" data-name="Path 38523" d="M230.668,169.668a9,9,0,1,0-9-9,8.974,8.974,0,0,0,9,9Zm0-1.636a6.981,6.981,0,0,1-4.582-1.636l10.31-10.31a7.442,7.442,0,0,1,1.636,4.582A7.333,7.333,0,0,1,230.668,168.032Zm0-14.728a6.98,6.98,0,0,1,4.582,1.636L224.941,165.25a7.442,7.442,0,0,1-1.636-4.582A7.333,7.333,0,0,1,230.668,153.3Z" transform="translate(23222.094 2297.332)"/>
  </g>
</svg>
