<svg xmlns="http://www.w3.org/2000/svg" width="16.8" height="16.789" viewBox="0 0 16.8 16.789">
  <path id="center-align" d="M12.307,16.79H4.493a.585.585,0,1,1,0-1.171h7.814a.585.585,0,1,1,0,1.171Zm3.907-3.9H.586a.586.586,0,1,1,0-1.172H16.214a.586.586,0,0,1,0,1.172ZM12.307,8.98H4.493a.585.585,0,1,1,0-1.171h7.814a.585.585,0,1,1,0,1.171Zm3.907-3.9H.586a.586.586,0,0,1,0-1.172H16.214a.586.586,0,0,1,0,1.172Zm-3.907-3.9H4.493A.567.567,0,0,1,3.907.586.567.567,0,0,1,4.493,0h7.814a.567.567,0,0,1,.586.586A.567.567,0,0,1,12.307,1.172Z" fill="#92929d"/>
</svg>
