<svg xmlns="http://www.w3.org/2000/svg" width="18" height="18" viewBox="0 0 18 18">
  <g id="Group_8521" data-name="Group 8521" transform="translate(-6003.527 1170)">
    <path id="Path_38430" data-name="Path 38430" d="M243.162,184.273a1.1,1.1,0,0,1-.781-1.885L258.173,166.6a1.1,1.1,0,0,1,1.562,1.562l-15.791,15.791a1.1,1.1,0,0,1-.781.323Z" transform="translate(5761.469 -1336.273)" fill="#221f20"/>
    <path id="Path_38431" data-name="Path 38431" d="M258.954,184.273a1.1,1.1,0,0,1-.781-.323l-15.791-15.791a1.1,1.1,0,1,1,1.562-1.562l15.79,15.791a1.1,1.1,0,0,1-.781,1.885Z" transform="translate(5761.469 -1336.273)" fill="#221f20"/>
  </g>
</svg>
