<svg xmlns="http://www.w3.org/2000/svg" width="13.491" height="13.484" viewBox="0 0 13.491 13.484">
  <g id="Group_8521" data-name="Group 8521" transform="translate(-6003.521 1170)">
    <path id="Path_38430" data-name="Path 38430" d="M242.883,179.756a.824.824,0,0,1-.585-1.412l11.828-11.825a.827.827,0,0,1,1.17,1.17l-11.827,11.827a.824.824,0,0,1-.585.242Z" transform="translate(5761.469 -1336.274)" fill="#221f20"/>
    <path id="Path_38431" data-name="Path 38431" d="M254.713,179.755a.824.824,0,0,1-.585-.242L242.3,167.686a.827.827,0,1,1,1.17-1.17L255.3,178.343a.824.824,0,0,1-.585,1.412Z" transform="translate(5761.467 -1336.273)" fill="#221f20"/>
  </g>
</svg>
