<svg xmlns="http://www.w3.org/2000/svg" width="12.024" height="14.332" viewBox="0 0 12.024 14.332">
  <g id="copy" transform="translate(0.4 0.4)">
    <g id="Group_7773" data-name="Group 7773">
      <path id="Path_38181" data-name="Path 38181" d="M159.91,37.8c.141,0-2.529-2.544-2.55-2.594a.729.729,0,0,0-.512-.211H151.14a.777.777,0,0,0-.778.773v.558h-.833a.778.778,0,0,0-.779.774V47.758a.777.777,0,0,0,.779.773h8.056a.777.777,0,0,0,.778-.773V47.2h.833a.777.777,0,0,0,.778-.773V38.1a.715.715,0,0,0-.065-.3Zm-.763-.142h-1.466a.389.389,0,0,1-.391-.387V35.821Zm-1.267,10.1a.293.293,0,0,1-.3.29h-8.056a.294.294,0,0,1-.3-.29V37.1a.294.294,0,0,1,.3-.29h.832v9.611a.778.778,0,0,0,.779.773h6.739Zm1.317-1.041H151.14a.3.3,0,0,1-.209-.085.288.288,0,0,1-.086-.2V35.772a.293.293,0,0,1,.295-.29h5.667v1.793a.873.873,0,0,0,.875.87h1.81v8.281a.293.293,0,0,1-.295.29Z" transform="translate(-148.75 -34.999)" fill="#296bb5" stroke="#296bb5" stroke-width="0.8"/>
    </g>
  </g>
</svg>
