<svg width="24" height="24" viewBox="0 0 24 24" fill="none" xmlns="http://www.w3.org/2000/svg">
<path d="M6.83134 11.9996L11.2621 15.6919L17.1698 8.30729M12.0006 22.3381C10.6429 22.3381 9.29853 22.0706 8.04421 21.5511C6.78989 21.0315 5.65019 20.27 4.69017 19.31C3.73016 18.35 2.96863 17.2103 2.44908 15.956C1.92952 14.7016 1.66211 13.3573 1.66211 11.9996C1.66211 10.6419 1.92952 9.29756 2.44908 8.04324C2.96863 6.78892 3.73016 5.64921 4.69017 4.6892C5.65019 3.72918 6.78989 2.96766 8.04421 2.4481C9.29853 1.92854 10.6429 1.66113 12.0006 1.66113C14.7425 1.66113 17.3721 2.75036 19.311 4.6892C21.2498 6.62804 22.339 9.25766 22.339 11.9996C22.339 14.7415 21.2498 17.3712 19.311 19.31C17.3721 21.2488 14.7425 22.3381 12.0006 22.3381Z" stroke="white" stroke-width="2"/>
</svg>
