<svg xmlns="http://www.w3.org/2000/svg" width="21.007" height="25.209" viewBox="0 0 21.007 25.209">
  <path id="csv" d="M154.535,28.79a2.274,2.274,0,0,0-1.908-.79H141.677c-1.2,0-1.676.473-1.676,1.676V51.533c0,1.2.473,1.676,1.676,1.676h17.655c1.2,0,1.676-.473,1.676-1.676V36.38a2.274,2.274,0,0,0-.79-1.908ZM159.543,51.3c0,.321-.126.447-.447.447H141.914c-.321,0-.447-.126-.447-.447V45.873h18.075Zm-12.584-7.614a2.768,2.768,0,0,0,.921-.159l.167.863a3.153,3.153,0,0,1-1.255.21,2.325,2.325,0,0,1-2.561-2.445,2.493,2.493,0,0,1,2.67-2.6,2.885,2.885,0,0,1,1.2.218l-.225.878a2.39,2.39,0,0,0-.928-.181,1.607,1.607,0,0,0,.007,3.213Zm3.031-1.212c-.812-.283-1.342-.733-1.342-1.444,0-.834.7-1.472,1.85-1.472a3,3,0,0,1,1.248.247l-.246.892a2.328,2.328,0,0,0-1.023-.232c-.479,0-.711.218-.711.472,0,.312.276.45.907.689.864.319,1.269.769,1.269,1.458,0,.82-.631,1.516-1.973,1.516a3.2,3.2,0,0,1-1.386-.3l.225-.914a2.817,2.817,0,0,0,1.226.3c.508,0,.776-.21.776-.53s-.233-.479-.82-.689Zm2.284-2.836h1.211l.595,2.067c.167.58.319,1.139.436,1.748h.021c.123-.588.275-1.168.443-1.727l.624-2.089h1.175l-1.647,4.889h-1.291Zm7.268-1.358H141.468V29.913c0-.321.126-.447.447-.447h11.161c.16,0,.224.063.224.223v4.345c0,1.2.473,1.676,1.676,1.676h4.345c.16,0,.224.063.224.224Z" transform="translate(-140.001 -28)" fill="#43a10c"/>
</svg>
