<svg xmlns="http://www.w3.org/2000/svg" width="16" height="19.556" viewBox="0 0 16 19.556">
  <g id="noun-delete-4810783" transform="translate(-139.996 -23.332)">
    <path id="Path_38518" data-name="Path 38518" d="M257.686,25.37H263.8a1.019,1.019,0,0,0,0-2.038h-6.115a1.019,1.019,0,0,0,0,2.038Z" transform="translate(-112.747)"/>
    <path id="Path_38519" data-name="Path 38519" d="M155.108,116.67H140.886a.9.9,0,0,0-.77.43.836.836,0,0,0,0,.86.9.9,0,0,0,.77.43v9.459a4.23,4.23,0,0,0,1.3,3.04,4.522,4.522,0,0,0,3.143,1.259h5.333a4.522,4.522,0,0,0,3.143-1.259,4.23,4.23,0,0,0,1.3-3.04V118.39a.9.9,0,0,0,.77-.43.836.836,0,0,0,0-.86.9.9,0,0,0-.77-.43Zm-1.778,11.179a2.537,2.537,0,0,1-.781,1.824,2.712,2.712,0,0,1-1.886.756H145.33a2.712,2.712,0,0,1-1.886-.756,2.537,2.537,0,0,1-.781-1.824V118.39H153.33Z" transform="translate(0 -89.261)"/>
    <path id="Path_38520" data-name="Path 38520" d="M281.017,241.489a1.019,1.019,0,0,0,1.019-1.019v-6.115a1.019,1.019,0,0,0-2.038,0v6.115a1.019,1.019,0,0,0,1.019,1.019Z" transform="translate(-134.765 -202.673)"/>
    <path id="Path_38521" data-name="Path 38521" d="M374.353,241.489a1.019,1.019,0,0,0,1.019-1.019v-6.115a1.019,1.019,0,0,0-2.038,0v6.115a1.019,1.019,0,0,0,1.019,1.019Z" transform="translate(-224.611 -202.673)"/>
  </g>
</svg>
