<svg xmlns="http://www.w3.org/2000/svg" width="41.016" height="41.016" viewBox="0 0 41.016 41.016"><g transform="translate(-282.492 -178)"><path d="M20.508,0A20.508,20.508,0,1,1,0,20.508,20.508,20.508,0,0,1,20.508,0Z" transform="translate(282.492 178)" fill="#fff"/><path d="M20.508,1a19.513,19.513,0,0,0-7.593,37.483A19.513,19.513,0,0,0,28.1,2.533,19.385,19.385,0,0,0,20.508,1m0-1A20.508,20.508,0,1,1,0,20.508,20.508,20.508,0,0,1,20.508,0Z" transform="translate(282.492 178)" fill="#e1e1e1"/><text transform="translate(295.492 204)" fill="#243864" font-size="15" font-family="icofont, IcoFont" letter-spacing="-0.027em"><tspan x="0" y="0"></tspan></text></g></svg>