<svg xmlns="http://www.w3.org/2000/svg" width="10.47" height="10.467" viewBox="0 0 10.47 10.467">
  <g id="edit-icon-side-r" transform="translate(-15776.229 -17076.766)">
    <path id="Path_38447" data-name="Path 38447" d="M206.84,155.743h9.734a.193.193,0,0,0,.2-.2v-3.619h-.409v3.435h-9.325v-9.345h3.435V145.6h-3.64a.193.193,0,0,0-.2.2v9.734a.193.193,0,0,0,.2.2Z" transform="translate(15569.595 16931.49)" fill="#4c659e"/>
    <path id="Path_38448" data-name="Path 38448" d="M297.34,136.64a.186.186,0,0,0-.143.061l-4.908,4.908c-.02.02-.041.061-.061.082l-.573,2.045a.21.21,0,0,0,.143.245h.123l2.045-.573c.041,0,.061-.02.082-.061l4.908-4.908a.2.2,0,0,0,0-.286l-1.472-1.472a.38.38,0,0,0-.143-.041Zm-5.194,6.871.389-1.39,1,1Zm1.779-.573-1.186-1.186,4.6-4.6,1.186,1.186Z" transform="translate(15487.683 16940.125)" fill="#4c659e"/>
  </g>
</svg>
