<svg xmlns="http://www.w3.org/2000/svg" width="41.016" height="41.016" viewBox="0 0 41.016 41.016"><g transform="translate(-282.492 -178.492)"><path d="M20.508,0A20.508,20.508,0,1,1,0,20.508,20.508,20.508,0,0,1,20.508,0Z" transform="translate(282.492 178.492)" fill="#fff"/><path d="M20.508,1a19.513,19.513,0,0,0-7.593,37.483A19.513,19.513,0,0,0,28.1,2.533,19.385,19.385,0,0,0,20.508,1m0-1A20.508,20.508,0,1,1,0,20.508,20.508,20.508,0,0,1,20.508,0Z" transform="translate(282.492 178.492)" fill="#e1e1e1"/><path d="M314.6,60.817a3.4,3.4,0,0,0-4.69,0L298.786,71.94a.827.827,0,0,0-.218.385L297.4,77.013a.829.829,0,0,0,.8,1.031.8.8,0,0,0,.2-.025l4.69-1.173a.82.82,0,0,0,.385-.218L314.6,65.506a3.314,3.314,0,0,0,0-4.689ZM302.468,75.294l-3.127.782.782-3.127,9.2-9.2,2.345,2.345Zm10.96-10.962-.586.586L310.5,62.573l.586-.586a1.7,1.7,0,0,1,2.345,0,1.658,1.658,0,0,1,0,2.345Z" transform="translate(-3.559 129.936)" fill="#243864"/></g></svg>