<svg xmlns="http://www.w3.org/2000/svg" width="10.416" height="16" viewBox="0 0 10.416 16">
  <g id="Group_8479" data-name="Group 8479" transform="translate(-1101.444 -845.001)">
    <path id="Path_38495" data-name="Path 38495" d="M200.209,39.177a.518.518,0,0,0-.1.018.505.505,0,0,0-.308.238L193.472,50.47a.186.186,0,0,0-.029.081l-.262,4.424a.186.186,0,0,0,.291.169L197.14,52.7a.187.187,0,0,0,.058-.064l6.33-11.037a.521.521,0,0,0-.186-.7L200.5,39.247a.509.509,0,0,0-.291-.07Zm-.006.372a.135.135,0,0,1,.1.018l2.848,1.657a.138.138,0,0,1,.052.192l-1.052,1.831-3.086-1.8,1.052-1.831a.143.143,0,0,1,.081-.07Zm-1.319,2.227,3.092,1.8-5.005,8.721-3.086-1.79Zm-5.086,9.1,2.889,1.674-3.11,2.068Z" transform="translate(908.263 805.824)"/>
  </g>
</svg>
