<svg xmlns="http://www.w3.org/2000/svg" width="40" height="40" viewBox="0 0 40 40">
  <g id="export" transform="translate(-1559 -160)">
    <g id="Rectangle_1728" data-name="Rectangle 1728" transform="translate(1559 160)" fill="none" stroke="#e0e0e0" stroke-width="1">
      <rect width="40" height="40" rx="6" stroke="none"/>
      <rect x="0.5" y="0.5" width="39" height="39" rx="5.5" fill="none"/>
    </g>
    <g id="Download" transform="translate(1545.133 160.236)">
      <path id="Path_38282" data-name="Path 38282" d="M134.2,233.33h-3.691a.923.923,0,0,0,0,1.846h2.768v7.383H118.51v-7.383h2.768a.923.923,0,0,0,0-1.846h-3.691a.923.923,0,0,0-.923.923v9.228a.923.923,0,0,0,.923.923H134.2a.923.923,0,0,0,.923-.923v-9.228a.923.923,0,0,0-.923-.923Z" transform="translate(-91.797 -215.183)" fill="#333"/>
      <path id="Path_38283" data-name="Path 38283" d="M235.145,51.933l2.116-2.116v7.923a.923.923,0,1,0,1.846,0V49.817l2.116,2.116a.923.923,0,0,0,1.3-1.3l-3.691-3.691h0a.922.922,0,0,0-1.3,0l-3.691,3.691h0a.923.923,0,0,0,1.3,1.3Z" transform="translate(-204.089 -35.903)" fill="#333"/>
    </g>
  </g>
</svg>
