<svg xmlns="http://www.w3.org/2000/svg" width="22.171" height="16.313" viewBox="0 0 22.171 16.313">
  <g id="img" transform="translate(-4019 -1452)">
    <path id="Path_38365" data-name="Path 38365" d="M193.124,149.788H175.15a2.1,2.1,0,0,0-2.1,2.1V164a2.1,2.1,0,0,0,2.1,2.1h17.974a2.1,2.1,0,0,0,2.1-2.1V151.887a2.1,2.1,0,0,0-2.1-2.1Zm.648,10.891-5.537-3.221a.562.562,0,0,0-.589.012l-5.3,3.414-3.24-4.859a.568.568,0,0,0-.43-.25h0a.581.581,0,0,0-.457.189L174.5,160.17v-8.283a.648.648,0,0,1,.648-.648h17.974a.649.649,0,0,1,.648.648v8.792Z" transform="translate(3845.948 1302.212)" fill="#296bb5"/>
    <path id="Path_38366" data-name="Path 38366" d="M409.561,198.231a1.7,1.7,0,1,1-1.7-1.7,1.7,1.7,0,0,1,1.7,1.7" transform="translate(3627.441 1258.397)" fill="#296bb5"/>
  </g>
</svg>
