<svg xmlns="http://www.w3.org/2000/svg" width="16.041" height="16.04" viewBox="0 0 16.041 16.04">
  <path id="noun-structure-4970043" d="M119.895,46.457h-.573V44.166a1.718,1.718,0,0,0-1.719-1.719h-4.01V39.583h.573a1.146,1.146,0,0,0,1.146-1.146V36.146A1.146,1.146,0,0,0,114.166,35h-2.292a1.146,1.146,0,0,0-1.146,1.146v2.292a1.146,1.146,0,0,0,1.146,1.146h.573v2.864h-4.01a1.718,1.718,0,0,0-1.719,1.719v2.291h-.573A1.146,1.146,0,0,0,105,47.6v2.291a1.146,1.146,0,0,0,1.146,1.146h2.291a1.146,1.146,0,0,0,1.146-1.146V47.6a1.146,1.146,0,0,0-1.146-1.146h-.573V44.166a.573.573,0,0,1,.573-.573h4.01v2.864h-.573a1.146,1.146,0,0,0-1.146,1.146v2.291a1.146,1.146,0,0,0,1.146,1.146h2.292a1.146,1.146,0,0,0,1.146-1.146V47.6a1.146,1.146,0,0,0-1.146-1.146h-.573V43.593h4.01a.573.573,0,0,1,.573.573v2.291H117.6a1.146,1.146,0,0,0-1.146,1.146v2.291A1.146,1.146,0,0,0,117.6,51.04h2.292a1.146,1.146,0,0,0,1.146-1.146V47.6a1.146,1.146,0,0,0-1.146-1.146Zm-8.02-10.312h2.292v2.292h-2.292Zm-3.437,13.749h-2.291V47.6h2.291Zm5.729,0h-2.292V47.6h2.292Zm3.437,0V47.6h2.292v2.291Z" transform="translate(-105 -35)" fill="#296bb5"/>
</svg>
