<svg xmlns="http://www.w3.org/2000/svg" width="16.8" height="16.8" viewBox="0 0 16.8 16.8">
  <path id="left-align" d="M8.4,16.8H.586a.586.586,0,0,1,0-1.173H8.4a.586.586,0,0,1,0,1.173Zm7.815-3.907H.586a.586.586,0,0,1,0-1.173H16.214a.586.586,0,0,1,0,1.173ZM8.4,8.986H.586a.586.586,0,0,1,0-1.172H8.4a.586.586,0,0,1,0,1.172Zm7.815-3.907H.586a.586.586,0,1,1,0-1.172H16.214a.586.586,0,0,1,0,1.172ZM8.4,1.172H.586A.567.567,0,0,1,0,.586.567.567,0,0,1,.586,0H8.4a.567.567,0,0,1,.586.586A.567.567,0,0,1,8.4,1.172Z" fill="#92929d"/>
</svg>
