<svg id="logout" xmlns="http://www.w3.org/2000/svg" width="19.175" height="17.496" viewBox="0 0 19.175 17.496">
  <g id="Group_898" data-name="Group 898" transform="translate(16 6.739)">
    <g id="Group_897" data-name="Group 897">
      <path id="Path_3587" data-name="Path 3587" d="M430.162,203.911l-2.052-1.446a.562.562,0,0,0-.885.459v2.893a.562.562,0,0,0,.885.459l2.052-1.446A.562.562,0,0,0,430.162,203.911Z" transform="translate(-427.225 -202.361)" fill="#fff"/>
    </g>
  </g>
  <g id="Group_900" data-name="Group 900">
    <g id="Group_899" data-name="Group 899">
      <path id="Path_3588" data-name="Path 3588" d="M16.121,34.759a.562.562,0,0,0-.768.205,7.625,7.625,0,1,1,0-7.624.562.562,0,0,0,.973-.563,8.748,8.748,0,1,0,0,8.749A.562.562,0,0,0,16.121,34.759Z" transform="translate(0 -22.404)" fill="#fff"/>
    </g>
  </g>
  <g id="Group_902" data-name="Group 902" transform="translate(5.587 8.187)">
    <g id="Group_901" data-name="Group 901" transform="translate(0 0)">
      <path id="Path_3589" data-name="Path 3589" d="M149.754,241a.562.562,0,0,0,0,1.124h8.727V241Z" transform="translate(-149.192 -241.001)" fill="#fff"/>
    </g>
  </g>
</svg>
