<svg xmlns="http://www.w3.org/2000/svg" width="12.51" height="18.447" viewBox="0 0 12.51 18.447">
  <g id="my-profile" transform="translate(-10615.948 3008)">
    <path id="Path_38419" data-name="Path 38419" d="M171.96,304.956H160.788a.669.669,0,0,1-.669-.669v-1.764a6.255,6.255,0,0,1,12.51,0v1.764a.667.667,0,0,1-.669.669Zm-10.506-1.338h9.838v-1.1a4.92,4.92,0,0,0-9.84,0v1.1Z" transform="translate(10455.829 -3294.508)" fill="#296bb5"/>
    <path id="Path_38420" data-name="Path 38420" d="M237.715,7.653a3.826,3.826,0,1,1,3.825-3.828A3.828,3.828,0,0,1,237.715,7.653Zm0-6.315a2.489,2.489,0,1,0,2.49,2.487A2.492,2.492,0,0,0,237.715,1.337Z" transform="translate(10384.487 -3008)" fill="#296bb5"/>
  </g>
</svg>
