<svg xmlns="http://www.w3.org/2000/svg" width="14.327" height="16.151" viewBox="0 0 14.327 16.151">
  <g id="Group_8481" data-name="Group 8481" transform="translate(-1836.835 1583)">
    <path id="Path_38500" data-name="Path 38500" d="M149.267,62.528a1.811,1.811,0,0,0,.538-1.365,1.881,1.881,0,0,0-.615-1.346l-.481-.423a1.1,1.1,0,0,1-.365-.808V56.24a6.229,6.229,0,0,0-1.461-3.922,5.236,5.236,0,0,0-4.076-1.923.373.373,0,0,0-.154.019.325.325,0,0,0-.135-.019,5.372,5.372,0,0,0-4.115,1.923,6.189,6.189,0,0,0-1.461,3.922v2.346a1.064,1.064,0,0,1-.365.808l-.481.423a1.882,1.882,0,0,0-.615,1.346,1.811,1.811,0,0,0,.538,1.365,1.894,1.894,0,0,0,1.327.558H147.94a1.816,1.816,0,0,0,1.327-.557Zm-7.633-.212h-4.269a1.122,1.122,0,0,1-.788-.327,1.133,1.133,0,0,1-.327-.808,1.054,1.054,0,0,1,.365-.788l.481-.423a1.893,1.893,0,0,0,.615-1.384V56.24a4.955,4.955,0,0,1,4.807-5.076c.058,0,.1-.019.135-.019a.328.328,0,0,0,.135.019,4.955,4.955,0,0,1,4.807,5.076v2.346a1.893,1.893,0,0,0,.615,1.384l.481.423a1.093,1.093,0,0,1,.039,1.6,1.089,1.089,0,0,1-.788.327Z" transform="translate(1701.355 -1633.395)" fill="#666"/>
    <path id="Path_38501" data-name="Path 38501" d="M278.436,439.986a1.634,1.634,0,1,1-3.269,0,.385.385,0,0,0-.769,0,2.4,2.4,0,1,0,4.807,0,.385.385,0,0,0-.769,0Z" transform="translate(1567.206 -2009.238)" fill="#666"/>
  </g>
</svg>
