<svg xmlns="http://www.w3.org/2000/svg" width="13.97" height="13.97" viewBox="0 0 13.97 13.97">
  <g id="own-icon" transform="translate(-476.368 -721)">
    <path id="Path_38429" data-name="Path 38429" d="M70.981,334.132c.035-.265.063-.532.109-.794a6.981,6.981,0,0,1,2.955-4.56,5.61,5.61,0,0,0,7.839-.005c.221.175.453.341.666.529a6.9,6.9,0,0,1,2.349,4.467c.014.12.033.243.049.363v.437H70.978c0-.145,0-.292,0-.437Z" transform="translate(405.391 400.402)" fill="#296bb5"/>
    <path id="Path_38430" data-name="Path 38430" d="M187.777,1.094c.276.055.557.09.824.166a4.181,4.181,0,1,1-2.027-.074c.18-.041.366-.063.548-.093h.655Z" transform="translate(295.907 719.906)" fill="#296bb5"/>
  </g>
</svg>
