<svg xmlns="http://www.w3.org/2000/svg" width="17.859" height="24.616" viewBox="0 0 17.859 24.616">
  <g id="pdf" transform="translate(-4124 -1427)">
    <path id="Path_38361" data-name="Path 38361" d="M328.5,421.47a2.764,2.764,0,0,0-.6.052v3.831a2.434,2.434,0,0,0,.461.026,1.815,1.815,0,0,0,1.981-2.05A1.679,1.679,0,0,0,328.5,421.47Z" transform="translate(3804.069 1024.064)" fill="#f50223" fill-rule="evenodd"/>
    <path id="Path_38362" data-name="Path 38362" d="M213.262,421.08a2.27,2.27,0,0,0-.547.052v1.729a2.029,2.029,0,0,0,.442.035c.7,0,1.138-.356,1.138-.956C214.3,421.4,213.922,421.08,213.262,421.08Z" transform="translate(3914.19 1024.437)" fill="#f50223" fill-rule="evenodd"/>
    <path id="Path_38363" data-name="Path 38363" d="M164.508,5.9a.478.478,0,0,0-.115-.313L159.647.162l0,0a.486.486,0,0,0-.1-.081l-.032-.019a.5.5,0,0,0-.1-.04L159.394.01a.474.474,0,0,0-.11-.014H147.619a.967.967,0,0,0-.965.965V23.647a.966.966,0,0,0,.965.965h15.928a.966.966,0,0,0,.966-.965V5.95c0-.018,0-.036,0-.054Zm-12.6,14.832a2.714,2.714,0,0,1-1.9.617,3.389,3.389,0,0,1-.451-.026v2.093h-1.312V17.635a10.867,10.867,0,0,1,1.79-.122,2.809,2.809,0,0,1,1.789.469,1.711,1.711,0,0,1,.625,1.355,1.87,1.87,0,0,1-.538,1.39Zm5.586,1.99a4.2,4.2,0,0,1-2.7.756,11.511,11.511,0,0,1-1.5-.087V17.635a11.873,11.873,0,0,1,1.79-.122,3.769,3.769,0,0,1,2.4.625,2.591,2.591,0,0,1,.991,2.207,2.971,2.971,0,0,1-.974,2.372Zm5.422-4.074h-2.25v1.338h2.1v1.078h-2.1v2.354h-1.329V17.558h3.579Zm-15.3-2.256V.962H158.8V5.9a.483.483,0,0,0,.483.483h4.263v10Z" transform="translate(3977.346 1427.003)" fill="#f50223"/>
    <path id="Path_38364" data-name="Path 38364" d="M209.632,82.316c-.028,0-.708-.065-1.752-.065-.327,0-.657.007-.982.019a52.074,52.074,0,0,1-4.655-3.963c.016-.1.028-.171.033-.229a3.457,3.457,0,0,0-.393-2.526.958.958,0,0,0-.994-.259,1.188,1.188,0,0,0-.814.758c-.154.516.094,1.141.747,1.867.01.011.232.243.634.636-.262,1.247-.946,3.939-1.279,5.232a6.788,6.788,0,0,0-1.934,1.5l-.033.038-.021.045a1.565,1.565,0,0,0-.114,1.129.769.769,0,0,0,.461.436l.058.016a.762.762,0,0,0,.144.011c.4,0,1.4-.211,1.93-2.176l.129-.5A15.813,15.813,0,0,1,206.672,83c.867.643,1.73,1.234,2.566,1.757l.027.016a2.012,2.012,0,0,0,.837.2,1.234,1.234,0,0,0,1.229-1.033l.008-.045a1.232,1.232,0,0,0-.272-.977,2.172,2.172,0,0,0-1.435-.608Zm-10.878,3.915a.043.043,0,0,1-.007-.013.881.881,0,0,1,.079-.5,5.682,5.682,0,0,1,1.088-.932c-.409,1.326-1,1.44-1.16,1.446Zm2.6-8.807c-.629-.7-.619-1.047-.586-1.164.056-.2.306-.269.308-.27.126-.034.2-.027.271.047a2.59,2.59,0,0,1,.234,1.619c-.149-.149-.228-.232-.228-.232Zm-.325,5.961.011-.041h0c.315-1.233.769-3.039,1.03-4.2l.009.009v-.006c.845.8,2.14,1.959,3.691,3.169h-.017l.026.019a16.406,16.406,0,0,0-4.749,1.047Zm9.594.4c-.111.409-.325.465-.521.465a1.3,1.3,0,0,1-.5-.118c-.569-.357-1.152-.746-1.74-1.162h.014c1.008,0,1.679.061,1.705.063a1.5,1.5,0,0,1,.93.355.5.5,0,0,1,.108.4Z" transform="translate(3928.249 1355.058)" fill="#f50223"/>
  </g>
</svg>
