<svg xmlns="http://www.w3.org/2000/svg" width="19.739" height="19.025" viewBox="0 0 19.739 19.025">
  <g id="plan" transform="translate(-10281.106 3315)">
    <path id="Path_38411" data-name="Path 38411" d="M243.115,45.73V58.923c0,.169-.015.346,0,.514a.094.094,0,0,0,0,.013s0,0,0,0-1.488,5.523.013-.075c-.032.12.064-.109.007,0l.869-.112-1.478-1.338-1.993-1.8-.712-.644a.556.556,0,0,0-.944.391q0,.848,0,1.7,0,.675,0,1.351,0,.466,0,.932l.553-.553h-3.574c-.011,0,.04-.012-.031,0l.087.01q-.083-.025.049.026a.47.47,0,0,0-.05-.029q.108.088.046.03.077.108.043.055c-.026-.04-.033-.1.012.04-.033-.1,0,.114,0,.043,0-.008,0-.011,0-.016s0-.007,0-.01,0-.034,0-.05V47.07c0-.444.013-.89,0-1.334V45.73c0-.1-.034.126,0,.027-.046.137-.038.08-.012.04s.009-.017-.043.055q.062-.059-.046.03c.013,0,.105-.062.012-.012l-.039.017q.086-.021-.058,0c.031.006.021,0,.032,0h7.412c.059,0,.045.015-.056-.009.084.02-.043-.017-.049-.026l.026.014q.071.047-.042-.035c.077.069-.06-.093-.022-.034.026.04.033.1-.012-.04.035.106-.006-.141,0-.027a.553.553,0,1,0,1.106,0,.968.968,0,0,0-.971-.949h-5.09c-.761,0-1.522-.009-2.282,0a.966.966,0,0,0-.969.949c0,.03,0,.059,0,.089V58.876c0,.179,0,.358,0,.537a.988.988,0,0,0,.288.72,1.1,1.1,0,0,0,.811.268h3.424a.561.561,0,0,0,.553-.553q0-.749,0-1.5,0-.887,0-1.774v-.707l-.944.391,1.76,1.593,1.417,1.283,1.005.91a.56.56,0,0,0,.869-.112,1.533,1.533,0,0,0,.131-.8V47.448c0-.565.011-1.13,0-1.695,0-.008,0-.016,0-.024a.553.553,0,0,0-1.106,0Z" transform="translate(10051.411 -3359.777)" fill="#296bb5"/>
    <path id="Path_38412" data-name="Path 38412" d="M294.6,96.5c0,.046,0,.092-.005.138a.657.657,0,0,0-.007.076c0-.006.025-.146.007-.057a2.325,2.325,0,0,1-.063.26c-.008.026-.066.166-.023.071s-.024.048-.033.066a1.833,1.833,0,0,1-.134.223c-.011.015-.024.031-.034.047.076-.125.054-.067.024-.033s-.057.065-.087.1-.054.054-.083.08-.168.113-.021.024c-.07.043-.134.094-.206.134-.038.021-.077.041-.116.06-.017.008-.036.015-.053.024.142-.075.065-.028.023-.013a1.817,1.817,0,0,1-.242.068l-.074.014c-.044.009-.078-.008.057-.007-.05,0-.1.01-.152.011a2.321,2.321,0,0,1-.261-.01c-.076-.006.15.027.042.006l-.059-.011c-.049-.01-.1-.021-.144-.035s-.075-.023-.112-.036a.549.549,0,0,0-.055-.021c.131.03.086.038.038.015a2.083,2.083,0,0,1-.241-.134c-.032-.021-.062-.047-.094-.067.142.087.03.022-.01-.014a2.3,2.3,0,0,1-.189-.2c-.027-.03-.04-.075.033.044-.01-.016-.023-.031-.034-.047-.022-.031-.043-.064-.064-.1s-.044-.075-.064-.113c-.011-.022-.082-.172-.04-.079s-.015-.046-.023-.071-.023-.076-.033-.114-.02-.087-.028-.131.006-.1,0,.043c0-.025-.005-.051-.007-.076a1.852,1.852,0,0,1,0-.262c0-.02,0-.04.005-.061.007-.11-.02.116-.006.042.009-.049.018-.1.029-.147.02-.081.057-.158.076-.239-.028.119-.042.093-.022.051.01-.022.02-.044.031-.066.022-.043.045-.086.07-.127s.046-.073.071-.109c.011-.015.025-.031.034-.047,0,.005-.09.109-.033.044a2.408,2.408,0,0,1,.179-.187c.037-.034.17-.115.021-.024.033-.02.062-.045.094-.067a1.822,1.822,0,0,1,.227-.128c.016-.008.107-.05.014-.007s-.02.008,0,0c.042-.014.083-.029.126-.041s.076-.021.115-.029l.059-.012.059-.01-.087.012c.091,0,.184-.014.276-.011.041,0,.081.006.122.008.09.006-.051-.007-.057-.009.028.008.06.01.089.016a2.4,2.4,0,0,1,.284.081c.083.027-.045-.02-.051-.023.025.014.053.024.079.037q.065.032.128.069t.121.079c.014.01.094.069.013.008s-.006,0,.011.011a1.859,1.859,0,0,1,.2.2c.012.014.071.091.011.011s0,0,.008.013c.031.043.059.088.086.134s.047.085.068.128l.024.053c.025.051-.051-.138-.012-.024a2.162,2.162,0,0,1,.079.285c0,.02.007.04.01.059.011.058-.016-.152,0-.027.005.056.007.112.008.169a.553.553,0,1,0,1.106,0,2.365,2.365,0,0,0-.426-1.359,2.512,2.512,0,0,0-1.169-.894,2.389,2.389,0,0,0-2.609.7,2.476,2.476,0,0,0-.568,1.4,2.352,2.352,0,0,0,.332,1.38A2.39,2.39,0,0,0,295.7,96.5a.553.553,0,0,0-1.106,0Z" transform="translate(9997.662 -3407.112)" fill="#296bb5"/>
    <path id="Path_38413" data-name="Path 38413" d="M485.074,70.584h2.917c.094,0-.086-.021-.036-.005s-.065-.032-.063-.03.045.029.05.029c-.01,0-.1-.092-.046-.03-.011-.012-.071-.106-.035-.042s-.018-.045-.02-.052c.019.057-.019.029,0-.058,0,0,0,.026,0,.031v.005c0,.009,0,.019,0,.028,0,.328,0,.657,0,.985V82c0,.041,0,.082,0,.123,0,.009,0,.018,0,.026v0c0,.014-.006.086,0-.012s0-.037,0-.015c.041-.134.038-.08.012-.04-.037.057.082-.09.032-.044s.059-.04.057-.04-.047.025-.05.029.133-.046.049-.026c.019,0,.133-.006.056-.009h-2.922a.553.553,0,1,0,0,1.106h2.869a1,1,0,0,0,.735-.288.985.985,0,0,0,.268-.678c0-.312,0-.625,0-.937V70.547a1.048,1.048,0,0,0-.278-.791,1.021,1.021,0,0,0-.731-.278h-2.862a.553.553,0,1,0,0,1.106Z" transform="translate(9811.897 -3383.478)" fill="#296bb5"/>
    <path id="Path_38414" data-name="Path 38414" d="M485.078,115.349c.041,0,.083,0,.124,0l.046,0c.071.005-.126-.021-.057-.007a2.028,2.028,0,0,1,.218.052c.037.012.074.032.111.04-.007,0-.129-.061-.051-.021l.04.019a1.893,1.893,0,0,1,.2.119c.1.064-.077-.068-.008-.007.029.026.058.05.086.077s.048.048.071.073.1.121.04.044.012.019.025.038.042.066.061.1.031.061.047.091.037.085,0,0,0,0,0,.016a1.564,1.564,0,0,1,.057.2c.01.048.014.178,0,0,0,.041.008.082.01.122a1.975,1.975,0,0,1-.006.217c-.006.091.006-.05.008-.056a.479.479,0,0,0-.01.06q-.011.059-.027.117c-.01.038-.022.076-.036.113l-.016.041c-.023.064.055-.11.021-.051s-.07.139-.112.2c-.018.028-.043.054-.058.083,0-.006.09-.108.033-.044l-.028.033a1.921,1.921,0,0,1-.165.162c-.017.015-.072.057,0,0s0,0-.014.008c-.032.022-.065.043-.1.062s-.068.038-.1.055a.476.476,0,0,0-.053.025c.028-.019.123-.048.037-.017a1.715,1.715,0,0,1-.244.068c-.019,0-.041.005-.06.01.016,0,.134-.014.056-.008-.052,0-.1.007-.154.007a.553.553,0,0,0,0,1.106,2.172,2.172,0,0,0,2.015-1.429,2.134,2.134,0,0,0-.611-2.318,2.2,2.2,0,0,0-1.4-.528.553.553,0,0,0,0,1.106Z" transform="translate(9811.894 -3426.433)" fill="#296bb5"/>
    <path id="Path_38415" data-name="Path 38415" d="M109.927,82h-2.917c-.094,0,.086.021.036.005s.065.032.063.03-.045-.029-.05-.029c.01,0,.1.092.046.03.011.012.071.106.035.042s.018.045.02.052c-.019-.057.019-.029,0,.058,0,0,0-.026,0-.031v-.005c0-.009,0-.019,0-.028,0-.328,0-.657,0-.985V70.581c0-.041,0-.082,0-.123,0-.009,0-.018,0-.026v0c0-.014.006-.086,0,.012s0,.037,0,.015c-.041.134-.038.08-.012.04.037-.057-.082.09-.032.044s-.059.04-.057.04.047-.025.05-.029-.133.046-.049.026c-.019,0-.133.006-.056.009h2.922a.553.553,0,0,0,0-1.106h-2.869a1,1,0,0,0-.735.288.985.985,0,0,0-.268.678c0,.312,0,.625,0,.937V82.038a1.047,1.047,0,0,0,.278.791,1.02,1.02,0,0,0,.731.278h2.862a.553.553,0,0,0,0-1.106Z" transform="translate(10175.053 -3383.478)" fill="#296bb5"/>
    <path id="Path_38416" data-name="Path 38416" d="M151.059,122.88c-.041,0-.083,0-.124,0l-.046,0c-.071-.005.126.021.057.007a2.024,2.024,0,0,1-.218-.052c-.037-.012-.074-.032-.111-.04.007,0,.129.061.051.021l-.04-.019a1.9,1.9,0,0,1-.2-.119c-.1-.064.077.068.008.007-.029-.026-.058-.05-.086-.077s-.048-.048-.071-.073-.1-.121-.04-.044-.012-.019-.025-.038-.042-.066-.061-.1-.031-.061-.047-.091-.037-.085,0,0,0,0,0-.016a1.577,1.577,0,0,1-.057-.2c-.01-.048-.014-.178,0,0,0-.041-.008-.082-.009-.123a1.979,1.979,0,0,1,.006-.217c.006-.091-.006.05-.008.056a.484.484,0,0,0,.01-.06q.011-.059.027-.117c.01-.038.022-.076.036-.113l.016-.041c.023-.064-.055.11-.021.051s.07-.139.112-.2c.018-.028.043-.054.058-.083,0,.006-.09.108-.033.044l.028-.033a1.906,1.906,0,0,1,.165-.162c.017-.015.071-.057,0,0s0,0,.014-.008c.032-.022.065-.043.1-.062s.068-.038.1-.055a.48.48,0,0,0,.053-.025c-.028.019-.123.048-.037.017a1.718,1.718,0,0,1,.244-.068c.019,0,.041-.005.06-.01-.016,0-.134.014-.056.008.052,0,.1-.007.154-.007a.553.553,0,0,0,0-1.106,2.173,2.173,0,0,0-2.015,1.428,2.134,2.134,0,0,0,.611,2.318,2.2,2.2,0,0,0,1.4.528.553.553,0,0,0,0-1.106Z" transform="translate(10133.92 -3431.679)" fill="#296bb5"/>
    <path id="Path_38417" data-name="Path 38417" d="M336.1,311.336l.741,1.668.2-.757-1.281.569.757.2-.741-1.668a.548.548,0,0,0-.331-.254.639.639,0,0,0-.426.056l-1.542.685-.225.1.832.478q0-1.261,0-2.523,0-1.231,0-2.463,0-.758,0-1.516l-.944.391,2.1,1.905,1.789,1.619.927.839.112-.869-1.542.685-.225.1a.554.554,0,0,0-.254.331.565.565,0,0,0,.055.427.558.558,0,0,0,.331.254.639.639,0,0,0,.426-.056l1.542-.685.225-.1a.556.556,0,0,0,.112-.869l-2-1.813-1.911-1.73-.907-.821a.556.556,0,0,0-.944.391q0,1.246,0,2.491t0,2.508q0,.751,0,1.5a.557.557,0,0,0,.274.478.58.58,0,0,0,.558,0l1.542-.685.226-.1-.757-.2.741,1.668a.548.548,0,0,0,.331.254.639.639,0,0,0,.426-.056l1.281-.569a.548.548,0,0,0,.254-.331.639.639,0,0,0-.056-.426l-.741-1.668a.554.554,0,0,0-.331-.254.565.565,0,0,0-.426.056.558.558,0,0,0-.254.331.641.641,0,0,0,.056.426Z" transform="translate(9957.314 -3609.816)" fill="#296bb5"/>
    <path id="Path_38418" data-name="Path 38418" d="M281.2,254.037c.074.17,0-.015-.018-.056s-.034-.107-.048-.161-.023-.1-.032-.148c0-.018,0-.041-.01-.059q.018.147.008.058c0-.02,0-.04-.006-.059a2.217,2.217,0,0,1-.005-.3c0-.049.011-.1.012-.146,0,.166-.011.08,0,.031,0-.029.01-.057.016-.086a2.2,2.2,0,0,1,.084-.294c.008-.022.019-.045.026-.068-.039.14-.037.082-.016.039s.05-.1.079-.156c.05-.09.113-.17.167-.257-.09.147-.01.015.025-.024s.08-.087.123-.128.073-.067.111-.1.109-.056-.018.012a.552.552,0,0,0,.049-.035,2.188,2.188,0,0,1,.289-.172.781.781,0,0,0,.085-.04c-.106.071-.081.033-.031.014s.106-.039.16-.055.1-.027.147-.039.256-.036.06-.017a2.76,2.76,0,0,1,.3-.017q.074,0,.147.006c.029,0,.059.008.088.008-.163,0-.08-.011-.031,0a2.208,2.208,0,0,1,.3.072c.046.015.091.034.137.049.069.022-.134-.061-.038-.016l.092.044a2.613,2.613,0,0,1,.3.182c.038.026.073.077-.03-.025.024.024.053.044.079.066q.067.058.128.122t.119.133c.031.038.043.089-.022-.029.017.03.042.058.061.086a2.3,2.3,0,0,1,.186.337.555.555,0,0,0,.757.2.569.569,0,0,0,.2-.757,2.755,2.755,0,0,0-2.645-1.575,2.787,2.787,0,0,0-2.491,2,2.822,2.822,0,0,0,.162,1.915.553.553,0,0,0,.331.254.565.565,0,0,0,.426-.056.558.558,0,0,0,.254-.331.645.645,0,0,0-.056-.426Z" transform="translate(10008.161 -3557.342)" fill="#296bb5"/>
  </g>
</svg>
