<svg xmlns="http://www.w3.org/2000/svg" width="12" height="12" viewBox="0 0 12 12">
  <g id="Group_8463" data-name="Group 8463" transform="translate(-826.329 -493.25)">
    <path id="Path_38489" data-name="Path 38489" d="M163.5,195.75a6,6,0,1,1,6-6A5.995,5.995,0,0,1,163.5,195.75Zm0-11.294a5.294,5.294,0,1,0,5.294,5.294A5.287,5.287,0,0,0,163.5,184.456Z" transform="translate(668.829 309.5)" fill="#333"/>
    <path id="Path_38490" data-name="Path 38490" d="M297.5,192.5h.7v11.3h-.7Z" transform="translate(534.481 301.098)" fill="#333"/>
    <path id="Path_38491" data-name="Path 38491" d="M166.25,323.75h11.3v.7h-11.3Z" transform="translate(660.427 175.152)" fill="#333"/>
    <path id="Path_38492" data-name="Path 38492" d="M222.312,195.75c-1.995,0-3.562-2.647-3.562-6s1.567-6,3.562-6,3.562,2.647,3.562,6S224.307,195.75,222.312,195.75Zm0-11.294c-1.532,0-2.85,2.435-2.85,5.294s1.318,5.294,2.85,5.294,2.85-2.435,2.85-5.294S223.844,184.456,222.312,184.456Z" transform="translate(610.017 309.5)" fill="#333"/>
    <path id="Path_38493" data-name="Path 38493" d="M207.189,227.909A6.06,6.06,0,0,1,203,226.238l.5-.488a5.391,5.391,0,0,0,7.384,0l.5.488A6.06,6.06,0,0,1,207.189,227.909Z" transform="translate(625.14 269.172)" fill="#333"/>
    <path id="Path_38494" data-name="Path 38494" d="M203.5,391.529l-.5-.488a6.084,6.084,0,0,1,8.378,0l-.5.488a5.391,5.391,0,0,0-7.384,0Z" transform="translate(625.14 112.223)" fill="#333"/>
  </g>
</svg>
