<svg xmlns="http://www.w3.org/2000/svg" width="17.971" height="17.971" viewBox="0 0 17.971 17.971">
  <g id="q-mark" transform="translate(-15828.015 -17023)">
    <path id="Path_38433" data-name="Path 38433" d="M78.985,17.971a8.985,8.985,0,1,1,8.985-8.985A9,9,0,0,1,78.985,17.971Zm0-16.588a7.6,7.6,0,1,0,7.6,7.6,7.612,7.612,0,0,0-7.6-7.6Z" transform="translate(15758.015 17023)" fill="#243864"/>
    <path id="Path_38434" data-name="Path 38434" d="M245.765,95.833a.691.691,0,0,1-.691-.691V92.377a.691.691,0,0,1,.691-.691,2.074,2.074,0,1,0-2.074-2.074.691.691,0,0,1-1.382,0A3.456,3.456,0,1,1,246.456,93v2.143a.691.691,0,0,1-.691.691Z" transform="translate(15591.235 16939.607)" fill="#243864"/>
    <path id="Path_38435" data-name="Path 38435" d="M329.152,432.415a.712.712,0,0,1-.491-.2.7.7,0,1,1,.491.2Z" transform="translate(15507.848 16605.791)" fill="#243864"/>
  </g>
</svg>
