<svg id="Group_7827" data-name="Group 7827" xmlns="http://www.w3.org/2000/svg" width="17.523" height="14.794" viewBox="0 0 17.523 14.794">
  <path id="Path_38218" data-name="Path 38218" d="M176.445,62.451a.406.406,0,0,0-.369-.221H175.1a7.386,7.386,0,0,0-13.466-3.56.57.57,0,0,0,.941.646,6.273,6.273,0,0,1,11.419,2.915h-.922a.42.42,0,0,0-.369.221.47.47,0,0,0,.018.443l1.513,2.177a.425.425,0,0,0,.7,0l1.513-2.177a.471.471,0,0,0,0-.443Z" transform="translate(-158.978 -55.441)"/>
  <path id="Path_38219" data-name="Path 38219" d="M98.007,213.123a6.273,6.273,0,0,1-11.419-2.915h.922a.42.42,0,0,0,.369-.221.469.469,0,0,0-.018-.443l-1.513-2.177a.453.453,0,0,0-.7,0l-1.513,2.2a.424.424,0,0,0-.018.443.406.406,0,0,0,.369.221h.978a7.387,7.387,0,0,0,13.466,3.542.568.568,0,0,0-.148-.793.559.559,0,0,0-.775.148Z" transform="translate(-84.063 -202.203)"/>
</svg>
