<svg xmlns="http://www.w3.org/2000/svg" width="18" height="17.999" viewBox="0 0 18 17.999">
  <g id="noun-zoom-3411719" transform="translate(-92.629 -22.63)">
    <path id="Path_38546" data-name="Path 38546" d="M425.13,28.081l5.451-5.451.856.856-5.451,5.451Z" transform="translate(-320.811)"/>
    <path id="Path_38547" data-name="Path 38547" d="M423.633,108.633H420V105h1.211v2.422h2.422Z" transform="translate(-315.896 -79.483)"/>
    <path id="Path_38548" data-name="Path 38548" d="M92.629,360.411l5.451-5.451.856.856-5.451,5.451Z" transform="translate(0 -320.646)"/>
    <path id="Path_38549" data-name="Path 38549" d="M178.633,353.633h-1.211v-2.422H175V350h3.633Z" transform="translate(-79.484 -315.895)"/>
    <path id="Path_38550" data-name="Path 38550" d="M425.22,356.026l.856-.856,5.451,5.451-.856.856Z" transform="translate(-320.898 -320.849)"/>
    <path id="Path_38551" data-name="Path 38551" d="M421.211,353.633H420V350h3.633v1.211h-2.422Z" transform="translate(-315.896 -315.895)"/>
    <path id="Path_38552" data-name="Path 38552" d="M92.715,23.528l.856-.856,5.451,5.451-.856.856Z" transform="translate(-0.083 -0.041)"/>
    <path id="Path_38553" data-name="Path 38553" d="M178.633,108.633H175v-1.211h2.422V105h1.211Z" transform="translate(-79.484 -79.483)"/>
  </g>
</svg>
