<svg xmlns="http://www.w3.org/2000/svg" width="40" height="40" viewBox="0 0 40 40">
  <g id="settings" transform="translate(-1818 -161)">
    <g id="Rectangle_1727" data-name="Rectangle 1727" transform="translate(1818 161)" fill="none" stroke="#e0e0e0" stroke-width="1">
      <rect width="40" height="40" rx="6" stroke="none"/>
      <rect x="0.5" y="0.5" width="39" height="39" rx="5.5" fill="none"/>
    </g>
    <path id="noun-setting-4658990" d="M132.664,51.884l-1.76-.352,1.047-1.5a1.363,1.363,0,0,0-.171-1.706l-1.552-1.507a1.363,1.363,0,0,0-1.706-.172l-1.5,1-.352-1.76h0a1.363,1.363,0,0,0-1.327-1.092h-2.13a1.363,1.363,0,0,0-1.327,1.092l-.352,1.805-1.5-1.047a1.363,1.363,0,0,0-1.706.172l-1.507,1.507a1.363,1.363,0,0,0-.172,1.706l1,1.5-1.76.352h0a1.363,1.363,0,0,0-1.092,1.327v2.13a1.363,1.363,0,0,0,1.092,1.327l1.805.352-1.047,1.5a1.363,1.363,0,0,0,.172,1.706l1.507,1.507a1.363,1.363,0,0,0,1.706.217l1.5-1,.352,1.76h0a1.363,1.363,0,0,0,1.327,1.047h2.13a1.363,1.363,0,0,0,1.327-1.092l.352-1.76,1.5,1.047a1.363,1.363,0,0,0,1.706-.171l1.507-1.507h0a1.363,1.363,0,0,0,.217-1.751l-1-1.5,1.76-.352h0a1.363,1.363,0,0,0,1.047-1.327v-2.13a1.363,1.363,0,0,0-1.092-1.327Zm-8.385,5.551a3.159,3.159,0,1,1,2.234-.925A3.159,3.159,0,0,1,124.279,57.435Z" transform="translate(1713.721 126.394)" fill="#333"/>
  </g>
</svg>
