<svg xmlns="http://www.w3.org/2000/svg" width="16" height="16" viewBox="0 0 16 16">
  <g id="Group_8471" data-name="Group 8471" transform="translate(-1909.327 1827.773)">
    <path id="Path_38495" data-name="Path 38495" d="M272.855,199.08a3.3,3.3,0,1,0,2.326.964A3.289,3.289,0,0,0,272.855,199.08Zm0,5.728a2.443,2.443,0,1,1,1.723-.716,2.435,2.435,0,0,1-1.723.716Z" transform="translate(1644.489 -2022.143)" fill="#296bb5"/>
    <path id="Path_38496" data-name="Path 38496" d="M169.57,90.286H167.8a5.967,5.967,0,0,0-.486-1.174l1.26-1.254a.429.429,0,0,0,0-.606l-1.823-1.823a.429.429,0,0,0-.606,0l-1.254,1.257a5.972,5.972,0,0,0-1.174-.483V84.429a.428.428,0,0,0-.429-.429h-2.571a.428.428,0,0,0-.429.429v1.78a5.978,5.978,0,0,0-1.166.486l-1.263-1.266a.44.44,0,0,0-.606,0l-1.823,1.823a.429.429,0,0,0,0,.606l1.268,1.268a6.007,6.007,0,0,0-.468,1.16h-1.8a.428.428,0,0,0-.429.429v2.571a.428.428,0,0,0,.429.429h1.806a6.008,6.008,0,0,0,.477,1.143l-1.283,1.286a.429.429,0,0,0,0,.606l1.823,1.823a.429.429,0,0,0,.606,0l1.286-1.283a6.027,6.027,0,0,0,1.143.477v1.806a.428.428,0,0,0,.429.429h2.571a.428.428,0,0,0,.429-.429v-1.8a5.969,5.969,0,0,0,1.157-.477l1.271,1.274a.429.429,0,0,0,.606,0l1.823-1.823a.429.429,0,0,0,0-.606l-1.26-1.26a6.013,6.013,0,0,0,.477-1.169h1.783a.428.428,0,0,0,.429-.429V90.714a.428.428,0,0,0-.429-.429Zm-.429,2.571h-1.68a.428.428,0,0,0-.417.329,5.269,5.269,0,0,1-.64,1.537.428.428,0,0,0,.06.529l1.191,1.191-1.211,1.214-1.2-1.2a.429.429,0,0,0-.529-.063,5.145,5.145,0,0,1-1.531.628.428.428,0,0,0-.331.4v1.714h-1.714V97.428a.428.428,0,0,0-.329-.417,5.16,5.16,0,0,1-1.523-.632.429.429,0,0,0-.529.06l-1.209,1.217-1.211-1.211,1.209-1.209a.429.429,0,0,0,.06-.529,5.14,5.14,0,0,1-.631-1.523.429.429,0,0,0-.409-.329h-1.714V91.143h1.714a.429.429,0,0,0,.417-.331,5.181,5.181,0,0,1,.629-1.531.429.429,0,0,0-.063-.529l-1.211-1.2,1.211-1.211,1.191,1.191a.428.428,0,0,0,.529.06,5.151,5.151,0,0,1,1.537-.64.429.429,0,0,0,.331-.417v-1.68h1.714v1.674a.429.429,0,0,0,.331.417,5.145,5.145,0,0,1,1.546.637.429.429,0,0,0,.529-.06l1.183-1.183,1.211,1.211-1.183,1.183a.429.429,0,0,0-.06.529,5.145,5.145,0,0,1,.637,1.546.429.429,0,0,0,.417.331h1.674Z" transform="translate(1755.328 -1911.773)" fill="#296bb5"/>
  </g>
</svg>
