<svg xmlns="http://www.w3.org/2000/svg" width="40" height="40" viewBox="0 0 40 40">
  <g id="share-icon" transform="translate(-1497 -160)">
    <g id="Rectangle_1730" data-name="Rectangle 1730" transform="translate(1497 160)" fill="none" stroke="#e0e0e0" stroke-width="1">
      <rect width="40" height="40" rx="6" stroke="none"/>
      <rect x="0.5" y="0.5" width="39" height="39" rx="5.5" fill="none"/>
    </g>
    <g id="Save" transform="translate(1520.079 160)">
      <g id="noun-forward-1939653" transform="translate(-13.079 11)">
        <path id="Path_38192" data-name="Path 38192" d="M210.725,81.614a.782.782,0,0,1-.229-.036.728.728,0,0,1-.5-.689,7.985,7.985,0,0,1,7.977-7.977h.725V70.737a.725.725,0,0,1,1.2-.545l5.8,5.076a.724.724,0,0,1,0,1.091l-5.8,5.076a.725.725,0,0,1-1.2-.545V78.714h-2.177a6.554,6.554,0,0,0-5.22,2.611.722.722,0,0,1-.58.29Zm5.8-4.351h2.9a.725.725,0,0,1,.725.725v1.3l3.974-3.478-3.974-3.478v1.3a.725.725,0,0,1-.725.725h-1.45a6.539,6.539,0,0,0-6.194,4.469,8.005,8.005,0,0,1,4.743-1.568Z" transform="translate(-205.649 -70.012)" fill="#333"/>
        <path id="Path_38193" data-name="Path 38193" d="M121.679,122.4H105.725a.725.725,0,0,1-.725-.725V105.725a.725.725,0,0,1,.725-.725h4.351a.725.725,0,0,1,0,1.45H106.45v14.5h14.5v-3.626a.725.725,0,1,1,1.45,0v4.351A.725.725,0,0,1,121.679,122.4Z" transform="translate(-105 -103.55)" fill="#333"/>
      </g>
    </g>
  </g>
</svg>
