<svg xmlns="http://www.w3.org/2000/svg" width="15.475" height="81.24" viewBox="0 0 15.475 81.24">
  <g id="side-arrow-new-bar" transform="translate(14824.475 233) rotate(90)">
    <path id="Path_38490" data-name="Path 38490" d="M-235.915,14774.771l7.722-10.181s3.867-5.522,18.377-5.258,31.57,0,31.57,0,9.729-.794,15.542,5.1c0-.089,8.028,10.334,8.028,10.334Z" transform="translate(2.915 49.704)" fill="#4c659e"/>
    <path id="Arrow_2" data-name="Arrow 2" d="M6.266,6.266a.776.776,0,0,0,0-1.1L1.325.227a.776.776,0,0,0-1.1,1.1L4.619,5.717.227,10.109a.776.776,0,1,0,1.1,1.1Zm-1.584.227H5.717V4.941H4.682Z" transform="translate(-186.663 14814.49) rotate(90)" fill="#fff"/>
  </g>
</svg>
