<svg xmlns="http://www.w3.org/2000/svg" width="17.006" height="123.916" viewBox="0 0 17.006 123.916">
  <g id="side-arrow-new-bar.svg" transform="translate(119.305 -18036.125)">
    <path id="Path_38489" data-name="Path 38489" d="M-335.758,18128.5h17.809a18.453,18.453,0,0,0,13.948-8.168c5.6-8.1,9.091-8.719,18.058-8.719h37.735s7.472-.994,12.828,8.719a15.607,15.607,0,0,0,15.443,8.168H-335.758Z" transform="translate(18009.285 18371.883) rotate(90)" fill="#4c659e"/>
    <path id="Arrow_2" data-name="Arrow 2" d="M5.036,5.036a.624.624,0,0,0,0-.882L1.065.183a.624.624,0,0,0-.882.882L3.713,4.6.183,8.125a.624.624,0,0,0,.882.883Zm-1.273.183H4.6V3.971H3.763Z" transform="translate(-108.192 18109.135) rotate(180)" fill="#fff"/>
  </g>
</svg>
