<svg xmlns="http://www.w3.org/2000/svg" width="17.217" height="16.278" viewBox="0 0 17.217 16.278">
  <g id="Suggestion" transform="translate(-18501.578 649)">
    <path id="Path_38372" data-name="Path 38372" d="M129.22,52.5H117.66a1.747,1.747,0,0,0-1.718,1.781v.406h-.469a1.74,1.74,0,0,0-1.718,1.75v.75a.652.652,0,0,0,.406.625.6.6,0,0,0,.781-.406.337.337,0,0,0,.062-.219v-.75a.534.534,0,0,1,.469-.5h11.56a.488.488,0,0,1,.469.5v7.78a.534.534,0,0,1-.469.5H123.6a.965.965,0,0,0-.75.406L121.566,67a.307.307,0,0,1-.437.094c-.031-.031-.062-.031-.062-.062l-1.406-1.875a.853.853,0,0,0-.75-.375h-3.437a.669.669,0,0,1-.469-.594V61.061a.637.637,0,0,0-.437-.625.6.6,0,0,0-.781.406c-.031.031-.031.094-.031.187v3.218a1.734,1.734,0,0,0,1.718,1.718h3.28L120.6,68.4a.853.853,0,0,0,.75.375,1.031,1.031,0,0,0,.75-.375l1.718-2.437h3.249a1.72,1.72,0,0,0,1.718-1.75V64.06h.469a1.728,1.728,0,0,0,1.718-1.781v-8a1.794,1.794,0,0,0-1.75-1.781Zm.469,9.779a.515.515,0,0,1-.469.531h-.469V56.437a1.761,1.761,0,0,0-1.718-1.75h-9.841v-.406a.515.515,0,0,1,.469-.531h11.56a.477.477,0,0,1,.469.531Z" transform="translate(18387.824 -701.5)" fill="#296bb5"/>
    <path id="Path_38373" data-name="Path 38373" d="M115,219.375a.625.625,0,1,1-.625-.625A.627.627,0,0,1,115,219.375Z" transform="translate(18387.828 -861.814)" fill="#296bb5"/>
    <path id="Path_38374" data-name="Path 38374" d="M188.124,193.75h-3.749a.625.625,0,0,1,0-1.25h3.749a.625.625,0,1,1,0,1.25Z" transform="translate(18320.326 -836.501)" fill="#296bb5"/>
    <path id="Path_38375" data-name="Path 38375" d="M193.123,255h-8.748a.625.625,0,0,1,0-1.25h8.748a.625.625,0,0,1,0,1.25Z" transform="translate(18320.326 -895.564)" fill="#296bb5"/>
    <path id="Path_38376" data-name="Path 38376" d="M395.625,316.25h-1.25a.625.625,0,1,1,0-1.25h1.25a.625.625,0,1,1,0,1.25Z" transform="translate(18117.826 -954.627)" fill="#296bb5"/>
    <path id="Path_38377" data-name="Path 38377" d="M190,316.25h-5.624a.625.625,0,1,1,0-1.25H190a.625.625,0,1,1,0,1.25Z" transform="translate(18320.326 -954.627)" fill="#296bb5"/>
  </g>
</svg>
