<svg xmlns="http://www.w3.org/2000/svg" width="26.111" height="14.128" viewBox="0 0 26.111 14.128">
  <g id="Group_8502" data-name="Group 8502" transform="translate(-16223.467 -1256)">
    <path id="Path_38525" data-name="Path 38525" d="M92.436,289.112a2.055,2.055,0,0,1,.33-.193,10.6,10.6,0,0,0-3.436-.522c-.66,0-2.886.055-3.9.742-1.292.907-1.429,3.683-1.429,4.26a.658.658,0,0,0,.632.66h5.827c.082-1.347.412-3.876,1.979-4.948Z" transform="translate(16139.469 975.079)"/>
    <path id="Path_38526" data-name="Path 38526" d="M133.047,139.322a3.243,3.243,0,1,1-3.243-3.243,3.243,3.243,0,0,1,3.243,3.243" transform="translate(16098.996 1119.922)"/>
    <path id="Path_38527" data-name="Path 38527" d="M445.6,293.853c-.027-.715-.192-3.3-1.457-4.15-1.017-.687-3.243-.742-3.9-.742a10.4,10.4,0,0,0-3.436.522c.11.055.22.137.33.193,1.539,1.045,1.924,3.436,1.979,4.92h5.827a.622.622,0,0,0,.632-.632.208.208,0,0,0,.028-.11Z" transform="translate(15803.982 974.544)"/>
    <path id="Path_38528" data-name="Path 38528" d="M447.207,139.322a3.243,3.243,0,1,1-3.243-3.243,3.243,3.243,0,0,1,3.243,3.243" transform="translate(15800.255 1119.922)"/>
    <path id="Path_38529" data-name="Path 38529" d="M250.063,309.861c-1.017-.687-3.243-.742-3.9-.742s-2.886.055-3.9.742c-1.292.88-1.429,3.683-1.457,4.233a.658.658,0,0,0,.632.66h9.428a.622.622,0,0,0,.632-.632v-.11c-.028-.687-.193-3.3-1.429-4.151Z" transform="translate(15990.363 955.374)"/>
    <path id="Path_38530" data-name="Path 38530" d="M290.411,160.045a3.243,3.243,0,1,1-3.243-3.243,3.243,3.243,0,0,1,3.243,3.243" transform="translate(15949.355 1100.215)"/>
  </g>
</svg>
