<svg xmlns="http://www.w3.org/2000/svg" width="16" height="4" viewBox="0 0 16 4">
  <path id="three-dots" d="M9.917-11.075a1.933,1.933,0,0,1,1.4-.6,1.933,1.933,0,0,1,1.4.6,1.911,1.911,0,0,1,.608,1.4,1.911,1.911,0,0,1-.608,1.4,1.933,1.933,0,0,1-1.4.6,1.933,1.933,0,0,1-1.4-.6,1.911,1.911,0,0,1-.608-1.4A1.911,1.911,0,0,1,9.917-11.075Zm5.988,0a1.933,1.933,0,0,1,1.4-.6,1.933,1.933,0,0,1,1.4.6,1.911,1.911,0,0,1,.608,1.4,1.911,1.911,0,0,1-.608,1.4,1.933,1.933,0,0,1-1.4.6,1.933,1.933,0,0,1-1.4-.6,1.911,1.911,0,0,1-.608-1.4A1.911,1.911,0,0,1,15.905-11.075Zm-11.977,0a1.933,1.933,0,0,1,1.4-.6,1.933,1.933,0,0,1,1.4.6,1.911,1.911,0,0,1,.608,1.4,1.911,1.911,0,0,1-.608,1.4,1.933,1.933,0,0,1-1.4.6,1.933,1.933,0,0,1-1.4-.6,1.911,1.911,0,0,1-.608-1.4A1.911,1.911,0,0,1,3.928-11.075Z" transform="translate(-3.32 11.68)"/>
</svg>
