<svg xmlns="http://www.w3.org/2000/svg" width="15.035" height="15.035" viewBox="0 0 15.035 15.035">
  <g id="tick-mark-side-r" transform="translate(-15817.982 -17279)">
    <path id="Path_38445" data-name="Path 38445" d="M77.516,15.031a7.518,7.518,0,1,1,5.316-2.2A7.517,7.517,0,0,1,77.516,15.031Zm0-14.409a6.891,6.891,0,1,0,4.873,2.018A6.891,6.891,0,0,0,77.516.622Z" transform="translate(15747.984 17279.004)" fill="#4c659e"/>
    <path id="Path_38446" data-name="Path 38446" d="M247.571,214.225a.313.313,0,0,1-.219-.094l-2.193-2.193h0a.314.314,0,0,1,.445-.445l1.973,1.973,3.539-3.539h0a.315.315,0,0,1,.445.445l-3.759,3.759a.313.313,0,0,1-.232.094Z" transform="translate(15577.615 17074.799)" fill="#4c659e"/>
  </g>
</svg>
