<svg id="total-champion" xmlns="http://www.w3.org/2000/svg" width="62" height="62" viewBox="0 0 62 62">
  <g id="ic-users">
    <g id="Oval" fill="rgba(0,88,255,0.03)">
      <path d="M31,0A31,31,0,1,1,0,31,31,31,0,0,1,31,0Z" stroke="none"/>
      <path d="M 31 1 C 26.94958114624023 1 23.02085876464844 1.793060302734375 19.32294845581055 3.357139587402344 C 15.75069046020508 4.868080139160156 12.54227066040039 7.031330108642578 9.786800384521484 9.786800384521484 C 7.031330108642578 12.54227066040039 4.868080139160156 15.75069046020508 3.357139587402344 19.32294845581055 C 1.793060302734375 23.02085876464844 1 26.94958114624023 1 31 C 1 35.05042266845703 1.793060302734375 38.97914123535156 3.357139587402344 42.67704772949219 C 4.868080139160156 46.24930953979492 7.031330108642578 49.45772933959961 9.786800384521484 52.21319961547852 C 12.54227066040039 54.96866989135742 15.75069046020508 57.13191986083984 19.32294845581055 58.64286041259766 C 23.02085876464844 60.20693969726562 26.94958114624023 61 31 61 C 35.05042266845703 61 38.97914123535156 60.20693969726562 42.67704772949219 58.64286041259766 C 46.24930953979492 57.13191986083984 49.45772933959961 54.96866989135742 52.21319961547852 52.21319961547852 C 54.96866989135742 49.45772933959961 57.13191986083984 46.24930953979492 58.64286041259766 42.67704772949219 C 60.20693969726562 38.97914123535156 61 35.05042266845703 61 31 C 61 26.94958114624023 60.20693969726562 23.02085876464844 58.64286041259766 19.32294845581055 C 57.13191986083984 15.75069046020508 54.96866989135742 12.54227066040039 52.21319961547852 9.786800384521484 C 49.45772933959961 7.031330108642578 46.24930953979492 4.868080139160156 42.67704772949219 3.357139587402344 C 38.97914123535156 1.793060302734375 35.05042266845703 1 31 1 M 31 0 C 48.12083053588867 0 62 13.87916946411133 62 31 C 62 48.12083053588867 48.12083053588867 62 31 62 C 13.87916946411133 62 0 48.12083053588867 0 31 C 0 13.87916946411133 13.87916946411133 0 31 0 Z" stroke="none" fill="rgba(41,107,181,0.22)"/>
    </g>
    <g id="Group_8429" data-name="Group 8429" transform="translate(-858.775 -711.901)">
      <path id="Path_38467" data-name="Path 38467" d="M133.468,2.375h-2.084V1.406c1.018,0,.824-1.406,0-1.406h-18.37c-.824,0-1.066,1.406,0,1.406v.969h-2.133a1.988,1.988,0,0,0-1.89,1.842c0,4.459,1.26,7.028,5.186,9.452a16.065,16.065,0,0,0,6.592,7.077l-.63,1.454h4.071l-.63-1.454a15.8,15.8,0,0,0,6.592-7.077c3.975-2.424,5.186-4.992,5.186-9.452a1.988,1.988,0,0,0-1.89-1.842ZM120.042,22.393c-.679,0-.872.872-.921,1.454h6.107c-.049-.582-.194-1.454-.921-1.454h-4.265Zm-.921,1.648h-.727c-.242,0-.436.242-.679.436l-.582,1.018h10.13l-.63-1.018c-.194-.194-.436-.436-.679-.436h-6.834Zm-2.133,1.648c-.242,0-.242.194-.242.194v4.023a1.092,1.092,0,0,0,.727.727h9.4a1.092,1.092,0,0,0,.727-.727V25.882s0-.194-.242-.194Zm6.349-18.612H127.6l-3.3,2.326,1.163,4.023-3.3-2.375-3.3,2.375L120.042,9.4l-3.3-2.326h4.265l1.163-4.023Zm-9.888,4.217c-.679-2.326-.436-4.944-.436-7.513h-2.133a.519.519,0,0,0-.485.436c0,3.054.388,5.089,3.054,7.077Zm17.449,0c.679-2.326.485-4.944.485-7.513h2.084a.519.519,0,0,1,.485.436c0,3.054-.388,5.089-3.054,7.077Z" transform="translate(767.107 727.952)" fill="#296bb5" fill-rule="evenodd"/>
    </g>
  </g>
</svg>
