<svg id="total-creator" xmlns="http://www.w3.org/2000/svg" width="62" height="62" viewBox="0 0 62 62">
  <g id="ic-users">
    <g id="Oval" fill="rgba(0,88,255,0.03)">
      <path d="M31,0A31,31,0,1,1,0,31,31,31,0,0,1,31,0Z" stroke="none"/>
      <path d="M 31 1 C 26.94958114624023 1 23.02085876464844 1.793060302734375 19.32294845581055 3.357139587402344 C 15.75069046020508 4.868080139160156 12.54227066040039 7.031330108642578 9.786800384521484 9.786800384521484 C 7.031330108642578 12.54227066040039 4.868080139160156 15.75069046020508 3.357139587402344 19.32294845581055 C 1.793060302734375 23.02085876464844 1 26.94958114624023 1 31 C 1 35.05042266845703 1.793060302734375 38.97914123535156 3.357139587402344 42.67704772949219 C 4.868080139160156 46.24930953979492 7.031330108642578 49.45772933959961 9.786800384521484 52.21319961547852 C 12.54227066040039 54.96866989135742 15.75069046020508 57.13191986083984 19.32294845581055 58.64286041259766 C 23.02085876464844 60.20693969726562 26.94958114624023 61 31 61 C 35.05042266845703 61 38.97914123535156 60.20693969726562 42.67704772949219 58.64286041259766 C 46.24930953979492 57.13191986083984 49.45772933959961 54.96866989135742 52.21319961547852 52.21319961547852 C 54.96866989135742 49.45772933959961 57.13191986083984 46.24930953979492 58.64286041259766 42.67704772949219 C 60.20693969726562 38.97914123535156 61 35.05042266845703 61 31 C 61 26.94958114624023 60.20693969726562 23.02085876464844 58.64286041259766 19.32294845581055 C 57.13191986083984 15.75069046020508 54.96866989135742 12.54227066040039 52.21319961547852 9.786800384521484 C 49.45772933959961 7.031330108642578 46.24930953979492 4.868080139160156 42.67704772949219 3.357139587402344 C 38.97914123535156 1.793060302734375 35.05042266845703 1 31 1 M 31 0 C 48.12083053588867 0 62 13.87916946411133 62 31 C 62 48.12083053588867 48.12083053588867 62 31 62 C 13.87916946411133 62 0 48.12083053588867 0 31 C 0 13.87916946411133 13.87916946411133 0 31 0 Z" stroke="none" fill="rgba(41,107,181,0.22)"/>
    </g>
    <path id="noun-user-plus-4815605" d="M114.288,59.937a6.635,6.635,0,1,1,4.691-1.943A6.635,6.635,0,0,1,114.288,59.937ZM105,70.552v1.327a1.327,1.327,0,0,0,1.327,1.327h15.923a1.327,1.327,0,0,0,1.327-1.327V70.552a5.308,5.308,0,0,0-5.308-5.308h-7.961A5.308,5.308,0,0,0,105,70.552ZM131.538,58.61h-2.654V55.956a1.327,1.327,0,0,0-2.654,0V58.61h-2.654a1.327,1.327,0,1,0,0,2.654h2.654v2.654h0a1.327,1.327,0,0,0,2.654,0V61.264h2.654a1.327,1.327,0,1,0,0-2.654Z" transform="translate(-88 -28.668)" fill="#296bb5"/>
  </g>
</svg>
