<svg xmlns="http://www.w3.org/2000/svg" width="17.46" height="17.267" viewBox="0 0 17.46 17.267">
  <path id="used" d="M169.5,92.012l-3.653-1c-.332,0-.5-.5-.332-.83,0-.166.166-.332.332-.5l1.66-1c-.332-.5-.664-1.162-1-1.66h-6.143l-.332.664a.8.8,0,0,1-1,.332,1.019,1.019,0,0,1-.166-1l.5-.83a.862.862,0,0,1,.664-.332h6.641a.863.863,0,0,1,.664.332c.332.664.83,1.328,1.162,1.992l1.66-1a1.1,1.1,0,0,1,1,.166.311.311,0,0,1,0,.5l-1,3.653c0,.332-.332.664-.664.5Zm-.332-1.494.332-1.162v-.166c-.5.332-1.162.664-1.66,1Zm-7.471,8.966,2.657-2.657a.623.623,0,0,1,1,0v2.324h1.992c1-1.826,1.992-3.487,2.989-5.313l-.332-.5a1.1,1.1,0,0,1,.166-1,.73.73,0,0,1,.83.166l.664,1.162a.5.5,0,0,1,0,.664l-.83,1.494s-2.324,3.985-2.657,4.483a.862.862,0,0,1-.664.332h-2.324v1.826a.714.714,0,0,1-.664.664.61.61,0,0,1-.5-.166l-2.49-2.49c-.166-.332-.166-.83.166-1Zm1.328.332,1,1V98.985Zm-3.985-10.792c0-.5-.332-.664-.83-.5l-1.66.5-1.826.332a.357.357,0,0,0-.332.332.73.73,0,0,0,.166.83l1.66,1-.166.332-.5.83-.5,1a.5.5,0,0,0,0,.664l3.487,5.977a.862.862,0,0,0,.664.332h1a.664.664,0,0,0,0-1.328h-.664A55.959,55.959,0,0,0,156.38,94l.332-.5.5-1,.166-.332,1.66,1a.61.61,0,0,0,.5.166.913.913,0,0,0,.5-.83l-.5-1.826Zm-.83,1.992v.166l-.664-.332-.83-.5h.166l1.162-.332Z" transform="translate(-154.319 -85.869)" fill="#296bb5" fill-rule="evenodd"/>
</svg>
