<svg xmlns="http://www.w3.org/2000/svg" width="13.159" height="13.204" viewBox="0 0 13.159 13.204">
  <path id="noun-user-2718582" d="M129.818,52.795a6.579,6.579,0,1,0-11.145,4.724l.1.086h0a6.863,6.863,0,0,0,1.487,1.046l.21.1.309.145.421.151.145.046c.171.053.349.1.526.138h.079a5.35,5.35,0,0,0,.553.086l.079.059c.21,0,.428.033.658.033a4.359,4.359,0,0,0,.658-.033H124a4.51,4.51,0,0,0,.553-.132h.132c.158-.039.316-.072.474-.125s.151-.053.23-.079.224-.072.335-.118l.408-.184.118-.059h0A6.7,6.7,0,0,0,127.7,57.67l.138-.118h0a6.579,6.579,0,0,0,1.98-4.757Zm-11.843,0a5.263,5.263,0,1,1,9.4,3.237,4.644,4.644,0,0,0-2.711-2.349,2.632,2.632,0,1,0-2.855,0,4.606,4.606,0,0,0-2.7,2.355,5.2,5.2,0,0,1-1.132-3.244Z" transform="translate(-116.659 -46.203)" fill="#296bb5"/>
</svg>
