<svg xmlns="http://www.w3.org/2000/svg" width="30.546" height="30.546" viewBox="0 0 30.546 30.546">
  <path id="user-icon" d="M135.536,50.264a15.273,15.273,0,1,0-2.218,7.925,15.272,15.272,0,0,0,2.218-7.925Zm-9.818,11.869-.534.24-.513.207c-.316.109-.644.207-.96.295l-.48.131q-.534.12-1.091.2l-.393.055a12.474,12.474,0,0,1-2.989,0l-.382-.055c-.371-.055-.731-.12-1.091-.2l-.469-.131c-.327-.087-.655-.186-.971-.295l-.513-.207h0a5.741,5.741,0,0,1-.535-.24V58.991a5.455,5.455,0,0,1,10.909,0ZM127.9,60.9V58.991a7.636,7.636,0,1,0-15.273,0V60.9a13.091,13.091,0,1,1,15.273,0Zm-7.636-21.545a5.455,5.455,0,1,0,3.857,1.6A5.454,5.454,0,0,0,120.264,39.355Zm0,8.727a3.272,3.272,0,1,1,2.314-.958A3.273,3.273,0,0,1,120.264,48.083Z" transform="translate(-104.99 -34.991)"/>
</svg>
