<svg xmlns="http://www.w3.org/2000/svg" width="18.65" height="15.872" viewBox="0 0 18.65 15.872">
  <path id="user-placeholder" d="M88.654,51.191c-.036.364-.059.728-.112,1.089A9.2,9.2,0,0,1,86,57.458a.605.605,0,0,1-.058.047,6.93,6.93,0,0,0-6.194-5.056,3.805,3.805,0,0,0,2.8-1.751,3.691,3.691,0,0,0,.405-3.27,3.807,3.807,0,0,0-4.141-2.576,3.831,3.831,0,0,0,.073,7.6,6.921,6.921,0,0,0-6.164,5.06c-.1-.107-.209-.213-.31-.328a9.217,9.217,0,0,1-2.375-5.815,1.726,1.726,0,0,0-.028-.182v-.445a1.655,1.655,0,0,0,.028-.182,9.027,9.027,0,0,1,1.791-5.091,9.151,9.151,0,0,1,6.228-3.72c.349-.052.7-.073,1.054-.109h.448a1.317,1.317,0,0,0,.164.027,8.989,8.989,0,0,1,4.742,1.538,9.158,9.158,0,0,1,4.086,6.483c.052.348.073.7.109,1.052v.448Z" transform="translate(-70.007 -41.642)"/>
</svg>
