<svg id="edit--icon-blue" xmlns="http://www.w3.org/2000/svg" width="43.298" height="43.298" viewBox="0 0 43.298 43.298">
  <path id="Ellipse_262" data-name="Ellipse 262" d="M21.649,0A21.649,21.649,0,1,1,0,21.649,21.649,21.649,0,0,1,21.649,0Z" transform="translate(0 0)" fill="#296bb5"/>
  <g id="Group_8592" data-name="Group 8592" transform="translate(-12313.797 2372.002)">
    <path id="Path_38536" data-name="Path 38536" d="M103.4,145.6a13.257,13.257,0,0,0-10.866,5.321.712.712,0,0,0,0,.829,13.743,13.743,0,0,0,21.731,0,.7.7,0,0,0,0-.829A13.257,13.257,0,0,0,103.4,145.6Zm0,1.674a4.055,4.055,0,1,1-2.882,1.188,4.07,4.07,0,0,1,2.882-1.188Zm-4.125.433a5.484,5.484,0,0,0,0,7.26,11.4,11.4,0,0,1-5.238-3.63,11.376,11.376,0,0,1,5.242-3.63Zm8.25,0a11.378,11.378,0,0,1,5.238,3.63,11.4,11.4,0,0,1-5.238,3.63,5.484,5.484,0,0,0,0-7.26Zm-4.125,1a2.63,2.63,0,1,0,2.63,2.63,2.63,2.63,0,0,0-2.63-2.63Zm0,1.43a1.192,1.192,0,1,1-.847.35,1.2,1.2,0,0,1,.847-.35Z" transform="translate(12232.396 -2501.6)" fill="#fff"/>
  </g>
</svg>
