<svg xmlns="http://www.w3.org/2000/svg" width="20" height="10.434" viewBox="0 0 20 10.434">
  <g id="Group_8592" data-name="Group 8592" transform="translate(-12324.8 2356)">
    <path id="Path_38536" data-name="Path 38536" d="M102.4,145.6a12.052,12.052,0,0,0-9.878,4.837.647.647,0,0,0,0,.754,12.494,12.494,0,0,0,19.755,0,.639.639,0,0,0,0-.754A12.052,12.052,0,0,0,102.4,145.6Zm0,1.522a3.7,3.7,0,1,1-3.7,3.7A3.686,3.686,0,0,1,102.4,147.122Zm-3.75.394a4.985,4.985,0,0,0,0,6.6,10.36,10.36,0,0,1-4.762-3.3A10.342,10.342,0,0,1,98.653,147.516Zm7.5,0a10.344,10.344,0,0,1,4.762,3.3,10.359,10.359,0,0,1-4.762,3.3,4.985,4.985,0,0,0,0-6.6Zm-3.75.91a2.391,2.391,0,1,0,2.391,2.391A2.4,2.4,0,0,0,102.4,148.426Zm0,1.3a1.087,1.087,0,1,1-1.087,1.087A1.077,1.077,0,0,1,102.4,149.73Z" transform="translate(12232.396 -2501.6)"/>
  </g>
</svg>
